<svg width="39" height="38" viewBox="0 0 39 38" fill="none" xmlns="http://www.w3.org/2000/svg">
<g clip-path="url(#clip0_15_2819)">
<path d="M14.7502 22.1667H24.2502C24.6701 22.1667 25.0728 21.9999 25.3698 21.7029C25.6667 21.406 25.8335 21.0033 25.8335 20.5833C25.8335 20.1634 25.6667 19.7607 25.3698 19.4638C25.0728 19.1668 24.6701 19 24.2502 19H14.7502C14.3303 19 13.9275 19.1668 13.6306 19.4638C13.3337 19.7607 13.1669 20.1634 13.1669 20.5833C13.1669 21.0033 13.3337 21.406 13.6306 21.7029C13.9275 21.9999 14.3303 22.1667 14.7502 22.1667Z" fill="#158527"/>
<path d="M30.5833 0H8.41667C6.31781 0.00251411 4.30563 0.837396 2.82151 2.32151C1.3374 3.80563 0.502514 5.81781 0.5 7.91667L0.5 9.5C0.50046 10.1678 0.64171 10.8279 0.914531 11.4374C1.18735 12.0469 1.58562 12.592 2.08333 13.0372V30.0833C2.08585 32.1822 2.92073 34.1944 4.40485 35.6785C5.88897 37.1626 7.90114 37.9975 10 38H29C31.0989 37.9975 33.111 37.1626 34.5952 35.6785C36.0793 34.1944 36.9142 32.1822 36.9167 30.0833V13.0372C37.4144 12.592 37.8126 12.0469 38.0855 11.4374C38.3583 10.8279 38.4995 10.1678 38.5 9.5V7.91667C38.4975 5.81781 37.6626 3.80563 36.1785 2.32151C34.6944 0.837396 32.6822 0.00251411 30.5833 0V0ZM3.66667 7.91667C3.66667 6.65689 4.16711 5.44871 5.05791 4.55791C5.94871 3.66711 7.15689 3.16667 8.41667 3.16667H30.5833C31.8431 3.16667 33.0513 3.66711 33.9421 4.55791C34.8329 5.44871 35.3333 6.65689 35.3333 7.91667V9.5C35.3333 9.91993 35.1665 10.3227 34.8696 10.6196C34.5727 10.9165 34.1699 11.0833 33.75 11.0833H5.25C4.83007 11.0833 4.42735 10.9165 4.13041 10.6196C3.83348 10.3227 3.66667 9.91993 3.66667 9.5V7.91667ZM33.75 30.0833C33.75 31.3431 33.2496 32.5513 32.3588 33.4421C31.468 34.3329 30.2598 34.8333 29 34.8333H10C8.74022 34.8333 7.53204 34.3329 6.64124 33.4421C5.75045 32.5513 5.25 31.3431 5.25 30.0833V14.25H33.75V30.0833Z" fill="#158527"/>
</g>
<defs>
<clipPath id="clip0_15_2819">
<rect width="38" height="38" fill="white" transform="translate(0.5)"/>
</clipPath>
</defs>
</svg>
