<svg width="55" height="36" viewBox="0 0 55 36" fill="none" xmlns="http://www.w3.org/2000/svg">
<mask id="path-1-outside-1_16_2829" maskUnits="userSpaceOnUse" x="-0.5" y="0" width="56" height="36" fill="black">
<rect fill="white" x="-0.5" width="56" height="36"/>
<path fill-rule="evenodd" clip-rule="evenodd" d="M1.17665 1.05199C1.06062 1.10308 0.870739 1.25125 0.754703 1.38142C0.547208 1.6141 0.5432 1.79079 0.512186 12.1711C0.483493 21.7915 0.496047 22.7537 0.653962 23.0576C0.749323 23.241 0.943737 23.4446 1.08604 23.5099C1.26115 23.5904 2.55 23.6289 5.07042 23.6289C9.35417 23.6289 9.19731 23.6639 9.51726 22.6397L9.69047 22.0852L11.5518 23.9553C13.2894 25.7009 14.559 26.7944 18.1074 29.6014C20.3793 31.3988 23.1028 33.444 23.747 33.8365C24.6221 34.3698 26.3145 34.9231 27.2726 34.9892C28.1839 35.052 29.2234 34.8363 29.7162 34.4823C29.9842 34.2896 30.0671 34.2801 30.5026 34.3907C31.9469 34.7577 33.6719 33.9793 34.6753 32.5077C34.9688 32.0771 34.9855 32.0691 35.4881 32.1177C36.9325 32.2578 38.6618 31.3923 39.3683 30.1759C39.6106 29.7588 39.666 29.7256 40.3264 29.6028C41.2032 29.4399 41.7308 29.1711 42.3831 28.5555C43.0988 27.88 43.4506 27.0887 43.4853 26.0771L43.5126 25.2788L44.286 24.7243C44.7115 24.4193 45.107 24.1686 45.1651 24.167C45.2231 24.1655 45.3655 24.4596 45.4815 24.8206C45.8448 25.9508 45.6961 25.9118 49.7878 25.9505C53.6809 25.9873 53.9638 25.9531 54.2944 25.4061C54.4945 25.0749 54.5 24.7861 54.5 14.5815C54.5 4.43212 54.4935 4.0863 54.2976 3.76208C53.9641 3.2104 53.6464 3.16356 51.1204 3.29406C47.1354 3.4997 44.1255 4.0037 41.201 4.95475C39.1986 5.60606 38.7145 5.9653 38.8149 6.72561L38.8669 7.11891L38.3239 6.90198C38.0252 6.78266 37.4961 6.57638 37.148 6.44354C36.7999 6.31081 35.315 5.68951 33.8483 5.06279C30.7292 3.73025 29.6098 3.40518 28.1395 3.40518C26.5032 3.40518 25.1863 3.86554 23.5328 5.01542L22.787 5.534H18.3291H13.8712L13.9429 4.85757C13.9986 4.33303 13.9761 4.10599 13.8429 3.84595C13.2797 2.74706 10.2511 1.84274 5.26821 1.28563C2.85697 1.01601 1.44217 0.935223 1.17665 1.05199ZM4.75912 3.51322C7.57333 3.82892 10.0179 4.28609 11.1239 4.70355L11.6828 4.91441L11.616 5.41053C11.2103 8.4243 9.64732 14.5859 7.64928 21.0478L7.54232 21.3937H5.12422H2.70623V12.3462C2.70623 7.37011 2.74178 3.29917 2.78534 3.2997C2.82891 3.30023 3.71701 3.39624 4.75912 3.51322ZM52.2855 14.5815V23.6289H49.8705H47.4554L47.0111 22.2186C45.9006 18.6934 43.3691 11.6846 42.1972 8.89051C41.8296 8.01439 41.5639 7.26654 41.6065 7.22854C41.7313 7.1171 43.5878 6.61693 44.9013 6.34072C47.0281 5.89356 49.6159 5.57892 51.4152 5.54869L52.2855 5.534V14.5815ZM29.4266 5.81468C29.8441 5.91048 30.613 6.16754 31.1352 6.38574C31.6574 6.60405 33.1052 7.21268 34.3526 7.73828C35.6 8.26378 37.4404 9.00057 38.4425 9.37556L40.2645 10.0572L40.9038 11.7072C42.1662 14.9663 44.557 21.7868 44.464 21.8637C44.4434 21.8807 43.9862 22.191 43.448 22.5536L42.4693 23.2126L42.1852 22.8619C41.0584 21.4715 38.9102 19.5105 35.0382 16.3383C32.2061 14.018 31.0337 13.0235 30.1351 12.1791C29.2698 11.3662 28.991 11.1754 28.6689 11.1754C28.5275 11.1754 27.8244 11.4149 27.1063 11.7076C26.3881 12.0003 25.6955 12.2419 25.567 12.2445C25.1536 12.2528 24.5267 12.534 24.3518 12.7895C24.002 13.3005 23.1064 14.1849 22.6881 14.4322C21.9841 14.8484 21.2237 14.9548 20.4204 14.7492C20.0476 14.6539 19.6792 14.4932 19.6019 14.3923C19.2476 13.9303 19.8858 12.1317 20.9296 10.6508C21.918 9.24836 24.5834 6.85642 25.8608 6.22565C27.0387 5.64406 28.1332 5.51793 29.4266 5.81468ZM20.0579 8.11519C17.3166 11.5013 16.5574 14.2392 17.9031 15.8865C18.5543 16.6836 20.2746 17.2359 21.6602 17.0926C23.0081 16.9533 24.1521 16.3516 25.2729 15.1927C25.7511 14.6981 26.055 14.4719 26.3046 14.4247C26.4992 14.3879 27.0431 14.1916 27.5132 13.9886L28.3678 13.6195L28.9076 14.1308C29.5228 14.7136 30.8763 15.8526 34.1801 18.5675C40.3004 23.5969 41.8619 25.4286 41.0694 26.6491C40.8157 27.0398 40.2811 27.3535 39.8679 27.354C39.4033 27.3545 38.5333 26.5623 35.272 23.1697C32.4357 20.2191 32.2543 20.0817 31.5732 20.3689C30.9298 20.6401 30.6987 21.379 31.0696 21.9791C31.1781 22.1547 32.6851 23.7548 34.4185 25.5347C36.1518 27.3147 37.5543 28.8235 37.5352 28.8876C37.4236 29.2631 36.7707 29.684 36.1071 29.8085C35.2464 29.9698 35.1383 29.8883 32.0711 26.7627C30.4972 25.1587 29.0782 23.7961 28.9176 23.7345C28.4978 23.5735 27.951 23.7817 27.699 24.1987C27.4433 24.6219 27.4425 24.9764 27.6964 25.3965C27.8063 25.5783 29.0461 26.9074 30.4514 28.35L33.0066 30.9729L32.718 31.3547C32.1537 32.1013 31.4316 32.3738 30.7973 32.0796C30.547 31.9635 29.3036 30.7833 27.4816 28.9323C24.6379 26.0431 24.5562 25.9706 24.1466 25.9706C23.3416 25.9706 22.7959 26.7552 23.0978 27.4783C23.1794 27.6736 24.3035 28.9247 25.5959 30.2585C26.8884 31.5924 27.9164 32.7132 27.8808 32.7493C27.7775 32.8535 26.5523 32.6129 25.8762 32.3556C25.0693 32.0486 23.9737 31.2899 20.9556 28.9482C16.349 25.374 14.3571 23.6642 12.388 21.5929C11.3853 20.5384 10.55 19.6335 10.5316 19.5819C10.5132 19.5302 10.8143 18.3773 11.2008 17.0197C11.9695 14.3196 12.8882 10.7076 13.2625 8.9135L13.5012 7.76926H16.9195H20.338L20.0579 8.11519Z"/>
</mask>
<path fill-rule="evenodd" clip-rule="evenodd" d="M1.17665 1.05199C1.06062 1.10308 0.870739 1.25125 0.754703 1.38142C0.547208 1.6141 0.5432 1.79079 0.512186 12.1711C0.483493 21.7915 0.496047 22.7537 0.653962 23.0576C0.749323 23.241 0.943737 23.4446 1.08604 23.5099C1.26115 23.5904 2.55 23.6289 5.07042 23.6289C9.35417 23.6289 9.19731 23.6639 9.51726 22.6397L9.69047 22.0852L11.5518 23.9553C13.2894 25.7009 14.559 26.7944 18.1074 29.6014C20.3793 31.3988 23.1028 33.444 23.747 33.8365C24.6221 34.3698 26.3145 34.9231 27.2726 34.9892C28.1839 35.052 29.2234 34.8363 29.7162 34.4823C29.9842 34.2896 30.0671 34.2801 30.5026 34.3907C31.9469 34.7577 33.6719 33.9793 34.6753 32.5077C34.9688 32.0771 34.9855 32.0691 35.4881 32.1177C36.9325 32.2578 38.6618 31.3923 39.3683 30.1759C39.6106 29.7588 39.666 29.7256 40.3264 29.6028C41.2032 29.4399 41.7308 29.1711 42.3831 28.5555C43.0988 27.88 43.4506 27.0887 43.4853 26.0771L43.5126 25.2788L44.286 24.7243C44.7115 24.4193 45.107 24.1686 45.1651 24.167C45.2231 24.1655 45.3655 24.4596 45.4815 24.8206C45.8448 25.9508 45.6961 25.9118 49.7878 25.9505C53.6809 25.9873 53.9638 25.9531 54.2944 25.4061C54.4945 25.0749 54.5 24.7861 54.5 14.5815C54.5 4.43212 54.4935 4.0863 54.2976 3.76208C53.9641 3.2104 53.6464 3.16356 51.1204 3.29406C47.1354 3.4997 44.1255 4.0037 41.201 4.95475C39.1986 5.60606 38.7145 5.9653 38.8149 6.72561L38.8669 7.11891L38.3239 6.90198C38.0252 6.78266 37.4961 6.57638 37.148 6.44354C36.7999 6.31081 35.315 5.68951 33.8483 5.06279C30.7292 3.73025 29.6098 3.40518 28.1395 3.40518C26.5032 3.40518 25.1863 3.86554 23.5328 5.01542L22.787 5.534H18.3291H13.8712L13.9429 4.85757C13.9986 4.33303 13.9761 4.10599 13.8429 3.84595C13.2797 2.74706 10.2511 1.84274 5.26821 1.28563C2.85697 1.01601 1.44217 0.935223 1.17665 1.05199ZM4.75912 3.51322C7.57333 3.82892 10.0179 4.28609 11.1239 4.70355L11.6828 4.91441L11.616 5.41053C11.2103 8.4243 9.64732 14.5859 7.64928 21.0478L7.54232 21.3937H5.12422H2.70623V12.3462C2.70623 7.37011 2.74178 3.29917 2.78534 3.2997C2.82891 3.30023 3.71701 3.39624 4.75912 3.51322ZM52.2855 14.5815V23.6289H49.8705H47.4554L47.0111 22.2186C45.9006 18.6934 43.3691 11.6846 42.1972 8.89051C41.8296 8.01439 41.5639 7.26654 41.6065 7.22854C41.7313 7.1171 43.5878 6.61693 44.9013 6.34072C47.0281 5.89356 49.6159 5.57892 51.4152 5.54869L52.2855 5.534V14.5815ZM29.4266 5.81468C29.8441 5.91048 30.613 6.16754 31.1352 6.38574C31.6574 6.60405 33.1052 7.21268 34.3526 7.73828C35.6 8.26378 37.4404 9.00057 38.4425 9.37556L40.2645 10.0572L40.9038 11.7072C42.1662 14.9663 44.557 21.7868 44.464 21.8637C44.4434 21.8807 43.9862 22.191 43.448 22.5536L42.4693 23.2126L42.1852 22.8619C41.0584 21.4715 38.9102 19.5105 35.0382 16.3383C32.2061 14.018 31.0337 13.0235 30.1351 12.1791C29.2698 11.3662 28.991 11.1754 28.6689 11.1754C28.5275 11.1754 27.8244 11.4149 27.1063 11.7076C26.3881 12.0003 25.6955 12.2419 25.567 12.2445C25.1536 12.2528 24.5267 12.534 24.3518 12.7895C24.002 13.3005 23.1064 14.1849 22.6881 14.4322C21.9841 14.8484 21.2237 14.9548 20.4204 14.7492C20.0476 14.6539 19.6792 14.4932 19.6019 14.3923C19.2476 13.9303 19.8858 12.1317 20.9296 10.6508C21.918 9.24836 24.5834 6.85642 25.8608 6.22565C27.0387 5.64406 28.1332 5.51793 29.4266 5.81468ZM20.0579 8.11519C17.3166 11.5013 16.5574 14.2392 17.9031 15.8865C18.5543 16.6836 20.2746 17.2359 21.6602 17.0926C23.0081 16.9533 24.1521 16.3516 25.2729 15.1927C25.7511 14.6981 26.055 14.4719 26.3046 14.4247C26.4992 14.3879 27.0431 14.1916 27.5132 13.9886L28.3678 13.6195L28.9076 14.1308C29.5228 14.7136 30.8763 15.8526 34.1801 18.5675C40.3004 23.5969 41.8619 25.4286 41.0694 26.6491C40.8157 27.0398 40.2811 27.3535 39.8679 27.354C39.4033 27.3545 38.5333 26.5623 35.272 23.1697C32.4357 20.2191 32.2543 20.0817 31.5732 20.3689C30.9298 20.6401 30.6987 21.379 31.0696 21.9791C31.1781 22.1547 32.6851 23.7548 34.4185 25.5347C36.1518 27.3147 37.5543 28.8235 37.5352 28.8876C37.4236 29.2631 36.7707 29.684 36.1071 29.8085C35.2464 29.9698 35.1383 29.8883 32.0711 26.7627C30.4972 25.1587 29.0782 23.7961 28.9176 23.7345C28.4978 23.5735 27.951 23.7817 27.699 24.1987C27.4433 24.6219 27.4425 24.9764 27.6964 25.3965C27.8063 25.5783 29.0461 26.9074 30.4514 28.35L33.0066 30.9729L32.718 31.3547C32.1537 32.1013 31.4316 32.3738 30.7973 32.0796C30.547 31.9635 29.3036 30.7833 27.4816 28.9323C24.6379 26.0431 24.5562 25.9706 24.1466 25.9706C23.3416 25.9706 22.7959 26.7552 23.0978 27.4783C23.1794 27.6736 24.3035 28.9247 25.5959 30.2585C26.8884 31.5924 27.9164 32.7132 27.8808 32.7493C27.7775 32.8535 26.5523 32.6129 25.8762 32.3556C25.0693 32.0486 23.9737 31.2899 20.9556 28.9482C16.349 25.374 14.3571 23.6642 12.388 21.5929C11.3853 20.5384 10.55 19.6335 10.5316 19.5819C10.5132 19.5302 10.8143 18.3773 11.2008 17.0197C11.9695 14.3196 12.8882 10.7076 13.2625 8.9135L13.5012 7.76926H16.9195H20.338L20.0579 8.11519Z" fill="#158527"/>
<path fill-rule="evenodd" clip-rule="evenodd" d="M1.17665 1.05199C1.06062 1.10308 0.870739 1.25125 0.754703 1.38142C0.547208 1.6141 0.5432 1.79079 0.512186 12.1711C0.483493 21.7915 0.496047 22.7537 0.653962 23.0576C0.749323 23.241 0.943737 23.4446 1.08604 23.5099C1.26115 23.5904 2.55 23.6289 5.07042 23.6289C9.35417 23.6289 9.19731 23.6639 9.51726 22.6397L9.69047 22.0852L11.5518 23.9553C13.2894 25.7009 14.559 26.7944 18.1074 29.6014C20.3793 31.3988 23.1028 33.444 23.747 33.8365C24.6221 34.3698 26.3145 34.9231 27.2726 34.9892C28.1839 35.052 29.2234 34.8363 29.7162 34.4823C29.9842 34.2896 30.0671 34.2801 30.5026 34.3907C31.9469 34.7577 33.6719 33.9793 34.6753 32.5077C34.9688 32.0771 34.9855 32.0691 35.4881 32.1177C36.9325 32.2578 38.6618 31.3923 39.3683 30.1759C39.6106 29.7588 39.666 29.7256 40.3264 29.6028C41.2032 29.4399 41.7308 29.1711 42.3831 28.5555C43.0988 27.88 43.4506 27.0887 43.4853 26.0771L43.5126 25.2788L44.286 24.7243C44.7115 24.4193 45.107 24.1686 45.1651 24.167C45.2231 24.1655 45.3655 24.4596 45.4815 24.8206C45.8448 25.9508 45.6961 25.9118 49.7878 25.9505C53.6809 25.9873 53.9638 25.9531 54.2944 25.4061C54.4945 25.0749 54.5 24.7861 54.5 14.5815C54.5 4.43212 54.4935 4.0863 54.2976 3.76208C53.9641 3.2104 53.6464 3.16356 51.1204 3.29406C47.1354 3.4997 44.1255 4.0037 41.201 4.95475C39.1986 5.60606 38.7145 5.9653 38.8149 6.72561L38.8669 7.11891L38.3239 6.90198C38.0252 6.78266 37.4961 6.57638 37.148 6.44354C36.7999 6.31081 35.315 5.68951 33.8483 5.06279C30.7292 3.73025 29.6098 3.40518 28.1395 3.40518C26.5032 3.40518 25.1863 3.86554 23.5328 5.01542L22.787 5.534H18.3291H13.8712L13.9429 4.85757C13.9986 4.33303 13.9761 4.10599 13.8429 3.84595C13.2797 2.74706 10.2511 1.84274 5.26821 1.28563C2.85697 1.01601 1.44217 0.935223 1.17665 1.05199ZM4.75912 3.51322C7.57333 3.82892 10.0179 4.28609 11.1239 4.70355L11.6828 4.91441L11.616 5.41053C11.2103 8.4243 9.64732 14.5859 7.64928 21.0478L7.54232 21.3937H5.12422H2.70623V12.3462C2.70623 7.37011 2.74178 3.29917 2.78534 3.2997C2.82891 3.30023 3.71701 3.39624 4.75912 3.51322ZM52.2855 14.5815V23.6289H49.8705H47.4554L47.0111 22.2186C45.9006 18.6934 43.3691 11.6846 42.1972 8.89051C41.8296 8.01439 41.5639 7.26654 41.6065 7.22854C41.7313 7.1171 43.5878 6.61693 44.9013 6.34072C47.0281 5.89356 49.6159 5.57892 51.4152 5.54869L52.2855 5.534V14.5815ZM29.4266 5.81468C29.8441 5.91048 30.613 6.16754 31.1352 6.38574C31.6574 6.60405 33.1052 7.21268 34.3526 7.73828C35.6 8.26378 37.4404 9.00057 38.4425 9.37556L40.2645 10.0572L40.9038 11.7072C42.1662 14.9663 44.557 21.7868 44.464 21.8637C44.4434 21.8807 43.9862 22.191 43.448 22.5536L42.4693 23.2126L42.1852 22.8619C41.0584 21.4715 38.9102 19.5105 35.0382 16.3383C32.2061 14.018 31.0337 13.0235 30.1351 12.1791C29.2698 11.3662 28.991 11.1754 28.6689 11.1754C28.5275 11.1754 27.8244 11.4149 27.1063 11.7076C26.3881 12.0003 25.6955 12.2419 25.567 12.2445C25.1536 12.2528 24.5267 12.534 24.3518 12.7895C24.002 13.3005 23.1064 14.1849 22.6881 14.4322C21.9841 14.8484 21.2237 14.9548 20.4204 14.7492C20.0476 14.6539 19.6792 14.4932 19.6019 14.3923C19.2476 13.9303 19.8858 12.1317 20.9296 10.6508C21.918 9.24836 24.5834 6.85642 25.8608 6.22565C27.0387 5.64406 28.1332 5.51793 29.4266 5.81468ZM20.0579 8.11519C17.3166 11.5013 16.5574 14.2392 17.9031 15.8865C18.5543 16.6836 20.2746 17.2359 21.6602 17.0926C23.0081 16.9533 24.1521 16.3516 25.2729 15.1927C25.7511 14.6981 26.055 14.4719 26.3046 14.4247C26.4992 14.3879 27.0431 14.1916 27.5132 13.9886L28.3678 13.6195L28.9076 14.1308C29.5228 14.7136 30.8763 15.8526 34.1801 18.5675C40.3004 23.5969 41.8619 25.4286 41.0694 26.6491C40.8157 27.0398 40.2811 27.3535 39.8679 27.354C39.4033 27.3545 38.5333 26.5623 35.272 23.1697C32.4357 20.2191 32.2543 20.0817 31.5732 20.3689C30.9298 20.6401 30.6987 21.379 31.0696 21.9791C31.1781 22.1547 32.6851 23.7548 34.4185 25.5347C36.1518 27.3147 37.5543 28.8235 37.5352 28.8876C37.4236 29.2631 36.7707 29.684 36.1071 29.8085C35.2464 29.9698 35.1383 29.8883 32.0711 26.7627C30.4972 25.1587 29.0782 23.7961 28.9176 23.7345C28.4978 23.5735 27.951 23.7817 27.699 24.1987C27.4433 24.6219 27.4425 24.9764 27.6964 25.3965C27.8063 25.5783 29.0461 26.9074 30.4514 28.35L33.0066 30.9729L32.718 31.3547C32.1537 32.1013 31.4316 32.3738 30.7973 32.0796C30.547 31.9635 29.3036 30.7833 27.4816 28.9323C24.6379 26.0431 24.5562 25.9706 24.1466 25.9706C23.3416 25.9706 22.7959 26.7552 23.0978 27.4783C23.1794 27.6736 24.3035 28.9247 25.5959 30.2585C26.8884 31.5924 27.9164 32.7132 27.8808 32.7493C27.7775 32.8535 26.5523 32.6129 25.8762 32.3556C25.0693 32.0486 23.9737 31.2899 20.9556 28.9482C16.349 25.374 14.3571 23.6642 12.388 21.5929C11.3853 20.5384 10.55 19.6335 10.5316 19.5819C10.5132 19.5302 10.8143 18.3773 11.2008 17.0197C11.9695 14.3196 12.8882 10.7076 13.2625 8.9135L13.5012 7.76926H16.9195H20.338L20.0579 8.11519Z" stroke="#158527" stroke-width="0.8" mask="url(#path-1-outside-1_16_2829)"/>
</svg>
