<svg width="39" height="38" viewBox="0 0 39 38" fill="none" xmlns="http://www.w3.org/2000/svg">
<g clip-path="url(#clip0_15_2817)">
<path d="M30.5833 31.6671H8.41667C6.31781 31.6646 4.30563 30.8297 2.82151 29.3456C1.3374 27.8614 0.502514 25.8493 0.5 23.7504L0.5 14.2504C0.502514 12.1515 1.3374 10.1394 2.82151 8.65526C4.30563 7.17114 6.31781 6.33625 8.41667 6.33374H30.5833C32.6822 6.33625 34.6944 7.17114 36.1785 8.65526C37.6626 10.1394 38.4975 12.1515 38.5 14.2504V23.7504C38.4975 25.8493 37.6626 27.8614 36.1785 29.3456C34.6944 30.8297 32.6822 31.6646 30.5833 31.6671ZM8.41667 9.50041C7.15689 9.50041 5.94871 10.0009 5.05791 10.8916C4.16711 11.7824 3.66667 12.9906 3.66667 14.2504V23.7504C3.66667 25.0102 4.16711 26.2184 5.05791 27.1092C5.94871 28 7.15689 28.5004 8.41667 28.5004H30.5833C31.8431 28.5004 33.0513 28 33.9421 27.1092C34.8329 26.2184 35.3333 25.0102 35.3333 23.7504V14.2504C35.3333 12.9906 34.8329 11.7824 33.9421 10.8916C33.0513 10.0009 31.8431 9.50041 30.5833 9.50041H8.41667ZM19.5 25.3337C18.2474 25.3337 17.0229 24.9623 15.9814 24.2664C14.9399 23.5705 14.1281 22.5813 13.6488 21.4241C13.1694 20.2668 13.044 18.9934 13.2884 17.7648C13.5327 16.5363 14.1359 15.4078 15.0217 14.5221C15.9074 13.6363 17.0359 13.0331 18.2644 12.7888C19.493 12.5444 20.7664 12.6698 21.9237 13.1492C23.0809 13.6285 24.0701 14.4403 24.766 15.4818C25.4619 16.5233 25.8333 17.7478 25.8333 19.0004C25.8333 20.6801 25.1661 22.291 23.9783 23.4788C22.7906 24.6665 21.1797 25.3337 19.5 25.3337ZM19.5 15.8337C18.8737 15.8337 18.2614 16.0195 17.7407 16.3674C17.2199 16.7154 16.8141 17.2099 16.5744 17.7886C16.3347 18.3672 16.272 19.0039 16.3942 19.6182C16.5164 20.2325 16.818 20.7967 17.2608 21.2396C17.7037 21.6824 18.2679 21.984 18.8822 22.1062C19.4965 22.2284 20.1332 22.1657 20.7118 21.926C21.2905 21.6863 21.785 21.2805 22.133 20.7597C22.4809 20.239 22.6667 19.6267 22.6667 19.0004C22.6667 18.1606 22.333 17.3551 21.7392 16.7612C21.1453 16.1674 20.3399 15.8337 19.5 15.8337ZM8.41667 12.6671C8.10351 12.6671 7.79739 12.7599 7.53701 12.9339C7.27664 13.1079 7.0737 13.3552 6.95386 13.6445C6.83402 13.9338 6.80266 14.2522 6.86376 14.5593C6.92485 14.8664 7.07565 15.1486 7.29708 15.37C7.51851 15.5914 7.80064 15.7422 8.10777 15.8033C8.41491 15.8644 8.73327 15.8331 9.02258 15.7132C9.3119 15.5934 9.55918 15.3904 9.73316 15.1301C9.90714 14.8697 10 14.5636 10 14.2504C10 13.8305 9.83319 13.4278 9.53625 13.1308C9.23932 12.8339 8.83659 12.6671 8.41667 12.6671ZM29 14.2504C29 14.5636 29.0929 14.8697 29.2668 15.1301C29.4408 15.3904 29.6881 15.5934 29.9774 15.7132C30.2667 15.8331 30.5851 15.8644 30.8922 15.8033C31.1994 15.7422 31.4815 15.5914 31.7029 15.37C31.9244 15.1486 32.0752 14.8664 32.1362 14.5593C32.1973 14.2522 32.166 13.9338 32.0461 13.6445C31.9263 13.3552 31.7234 13.1079 31.463 12.9339C31.2026 12.7599 30.8965 12.6671 30.5833 12.6671C30.1634 12.6671 29.7607 12.8339 29.4637 13.1308C29.1668 13.4278 29 13.8305 29 14.2504ZM8.41667 22.1671C8.10351 22.1671 7.79739 22.2599 7.53701 22.4339C7.27664 22.6079 7.0737 22.8552 6.95386 23.1445C6.83402 23.4338 6.80266 23.7522 6.86376 24.0593C6.92485 24.3664 7.07565 24.6486 7.29708 24.87C7.51851 25.0914 7.80064 25.2422 8.10777 25.3033C8.41491 25.3644 8.73327 25.3331 9.02258 25.2132C9.3119 25.0934 9.55918 24.8904 9.73316 24.6301C9.90714 24.3697 10 24.0636 10 23.7504C10 23.3305 9.83319 22.9278 9.53625 22.6308C9.23932 22.3339 8.83659 22.1671 8.41667 22.1671ZM29 23.7504C29 24.0636 29.0929 24.3697 29.2668 24.6301C29.4408 24.8904 29.6881 25.0934 29.9774 25.2132C30.2667 25.3331 30.5851 25.3644 30.8922 25.3033C31.1994 25.2422 31.4815 25.0914 31.7029 24.87C31.9244 24.6486 32.0752 24.3664 32.1362 24.0593C32.1973 23.7522 32.166 23.4338 32.0461 23.1445C31.9263 22.8552 31.7234 22.6079 31.463 22.4339C31.2026 22.2599 30.8965 22.1671 30.5833 22.1671C30.1634 22.1671 29.7607 22.3339 29.4637 22.6308C29.1668 22.9278 29 23.3305 29 23.7504Z" fill="#158527"/>
</g>
<defs>
<clipPath id="clip0_15_2817">
<rect width="38" height="38" fill="white" transform="translate(0.5)"/>
</clipPath>
</defs>
</svg>
