<svg width="24" height="24" viewBox="0 0 24 24" fill="none" xmlns="http://www.w3.org/2000/svg">
<g clip-path="url(#clip0_7_6)">
<path d="M12.9999 1.0001C12.9999 0.734881 13.1052 0.480527 13.2928 0.292991C13.4803 0.105455 13.7347 9.77919e-05 13.9999 9.77919e-05C16.6511 0.00300939 19.193 1.05751 21.0677 2.93225C22.9425 4.80698 23.997 7.34883 23.9999 10.0001C23.9999 10.2653 23.8945 10.5197 23.707 10.7072C23.5194 10.8947 23.2651 11.0001 22.9999 11.0001C22.7346 11.0001 22.4803 10.8947 22.2928 10.7072C22.1052 10.5197 21.9999 10.2653 21.9999 10.0001C21.9975 7.8791 21.1539 5.84565 19.6541 4.34587C18.1543 2.8461 16.1209 2.00248 13.9999 2.0001C13.7347 2.0001 13.4803 1.89474 13.2928 1.7072C13.1052 1.51967 12.9999 1.26531 12.9999 1.0001ZM13.9999 6.0001C15.0607 6.0001 16.0782 6.42153 16.8283 7.17167C17.5784 7.92182 17.9999 8.93923 17.9999 10.0001C17.9999 10.2653 18.1052 10.5197 18.2928 10.7072C18.4803 10.8947 18.7347 11.0001 18.9999 11.0001C19.2651 11.0001 19.5194 10.8947 19.707 10.7072C19.8945 10.5197 19.9999 10.2653 19.9999 10.0001C19.9983 8.40929 19.3656 6.88409 18.2408 5.75921C17.1159 4.63434 15.5907 4.00169 13.9999 4.0001C13.7347 4.0001 13.4803 4.10546 13.2928 4.29299C13.1052 4.48053 12.9999 4.73488 12.9999 5.0001C12.9999 5.26532 13.1052 5.51967 13.2928 5.7072C13.4803 5.89474 13.7347 6.0001 13.9999 6.0001ZM23.0929 16.7391C23.6724 17.3202 23.9978 18.1074 23.9978 18.9281C23.9978 19.7488 23.6724 20.536 23.0929 21.1171L22.1829 22.1661C13.9929 30.0071 -5.9371 10.0821 1.78289 1.8661L2.93289 0.866098C3.51466 0.302775 4.29482 -0.00885313 5.10459 -0.00136737C5.91436 0.0061184 6.68863 0.332116 7.25989 0.906098C7.29089 0.937098 9.14388 3.3441 9.14388 3.3441C9.69371 3.92173 9.99979 4.68903 9.99848 5.4865C9.99718 6.28398 9.6886 7.05027 9.13688 7.6261L7.97888 9.0821C8.61973 10.6392 9.56195 12.0543 10.7514 13.2462C11.9408 14.438 13.3541 15.3831 14.9099 16.0271L16.3749 14.8621C16.9508 14.3108 17.7169 14.0026 18.5142 14.0015C19.3114 14.0004 20.0784 14.3064 20.6559 14.8561C20.6559 14.8561 23.0619 16.7081 23.0929 16.7391ZM21.7169 18.1931C21.7169 18.1931 19.3239 16.3521 19.2929 16.3211C19.0869 16.1168 18.8085 16.0022 18.5184 16.0022C18.2283 16.0022 17.9499 16.1168 17.7439 16.3211C17.7169 16.3491 15.6999 17.9561 15.6999 17.9561C15.564 18.0643 15.4022 18.1352 15.2305 18.1619C15.0589 18.1885 14.8832 18.17 14.7209 18.1081C12.7053 17.3577 10.8746 16.1828 9.35272 14.6632C7.83082 13.1435 6.65329 11.3145 5.89989 9.3001C5.83309 9.13555 5.81131 8.95619 5.83679 8.78044C5.86227 8.60469 5.9341 8.43889 6.04489 8.3001C6.04489 8.3001 7.65189 6.2821 7.67888 6.2561C7.88315 6.05008 7.99776 5.77171 7.99776 5.4816C7.99776 5.19148 7.88315 4.91311 7.67888 4.7071C7.64788 4.6771 5.80689 2.2821 5.80689 2.2821C5.59779 2.09461 5.32489 1.99419 5.04414 2.00144C4.76338 2.0087 4.49603 2.12306 4.29689 2.3211L3.14689 3.3211C-2.4951 10.1051 14.7759 26.4181 20.7209 20.8001L21.6319 19.7501C21.8453 19.5524 21.9736 19.2794 21.9894 18.9888C22.0053 18.6982 21.9076 18.4129 21.7169 18.1931Z" fill="#158527"/>
</g>
<defs>
<clipPath id="clip0_7_6">
<rect width="24" height="24" fill="white"/>
</clipPath>
</defs>
</svg>
