<svg width="48" height="48" viewBox="0 0 48 48" fill="none" xmlns="http://www.w3.org/2000/svg">
<path d="M24 2.5C24.8284 2.5 25.5 3.17158 25.5 4V6C25.5 6.82842 24.8284 7.5 24 7.5C23.1716 7.5 22.5 6.82842 22.5 6V4C22.5 3.17158 23.1716 2.5 24 2.5Z" fill="#444939"/>
<path fill-rule="evenodd" clip-rule="evenodd" d="M12.5 24C12.5 17.6487 17.6487 12.5 24 12.5C30.3512 12.5 35.5 17.6487 35.5 24C35.5 30.3512 30.3512 35.5 24 35.5C17.6487 35.5 12.5 30.3512 12.5 24ZM24 15.5C19.3056 15.5 15.5 19.3056 15.5 24C15.5 28.6944 19.3056 32.5 24 32.5C28.6944 32.5 32.5 28.6944 32.5 24C32.5 19.3056 28.6944 15.5 24 15.5Z" fill="#444939"/>
<path d="M10.9181 8.79725C10.3323 8.21147 9.38255 8.21147 8.79677 8.79725C8.21097 9.38305 8.21097 10.3328 8.79677 10.9186L10.211 12.3328C10.7968 12.9186 11.7465 12.9186 12.3323 12.3328C12.9181 11.747 12.9181 10.7972 12.3323 10.2115L10.9181 8.79725Z" fill="#444939"/>
<path d="M45.5 24C45.5 24.8284 44.8284 25.5 44 25.5H42C41.1716 25.5 40.5 24.8284 40.5 24C40.5 23.1716 41.1716 22.5 42 22.5H44C44.8284 22.5 45.5 23.1716 45.5 24Z" fill="#444939"/>
<path d="M39.2025 10.9186C39.7883 10.3328 39.7883 9.38302 39.2025 8.79724C38.6167 8.21144 37.6669 8.21144 37.0811 8.79724L35.6669 10.2114C35.0811 10.7972 35.0811 11.747 35.6669 12.3328C36.2527 12.9186 37.2025 12.9186 37.7883 12.3328L39.2025 10.9186Z" fill="#444939"/>
<path d="M24 40.5C24.8284 40.5 25.5 41.1716 25.5 42V44C25.5 44.8284 24.8284 45.5 24 45.5C23.1716 45.5 22.5 44.8284 22.5 44V42C22.5 41.1716 23.1716 40.5 24 40.5Z" fill="#444939"/>
<path d="M37.7891 35.6672C37.2033 35.0814 36.2537 35.0814 35.6679 35.6672C35.0821 36.253 35.0821 37.2028 35.6679 37.7886L37.0821 39.2028C37.6679 39.7886 38.6175 39.7886 39.2033 39.2028C39.7891 38.617 39.7891 37.6672 39.2033 37.0814L37.7891 35.6672Z" fill="#444939"/>
<path d="M7.5 24C7.5 24.8284 6.82842 25.5 6 25.5H4C3.17158 25.5 2.5 24.8284 2.5 24C2.5 23.1716 3.17158 22.5 4 22.5H6C6.82842 22.5 7.5 23.1716 7.5 24Z" fill="#444939"/>
<path d="M12.3323 37.7886C12.9181 37.2028 12.9181 36.253 12.3323 35.6672C11.7465 35.0814 10.7968 35.0814 10.211 35.6672L8.79676 37.0814C8.21098 37.6672 8.21098 38.617 8.79676 39.2028C9.38254 39.7886 10.3323 39.7886 10.9181 39.2028L12.3323 37.7886Z" fill="#444939"/>
</svg>
